<svg id="OBJECT" height="512" viewBox="0 0 512 512" width="512" xmlns="http://www.w3.org/2000/svg"><path d="m431 82h-75v-47a35 35 0 0 0 -35-35h-240a35 35 0 0 0 -35 35v360a35 35 0 0 0 35 35h75v47a35 35 0 0 0 35 35h240a35 35 0 0 0 35-35v-360a35 35 0 0 0 -35-35zm-350 318a5 5 0 0 1 -5-5v-360a5 5 0 0 1 5-5h240a5 5 0 0 1 5 5v47h-135a35 35 0 0 0 -35 35v283zm355 77a5 5 0 0 1 -5 5h-240a5 5 0 0 1 -5-5v-360a5 5 0 0 1 5-5h240a5 5 0 0 1 5 5z"/><path d="m381 202h-140a15 15 0 0 0 0 30h140a15 15 0 0 0 0-30z"/><path d="m381 282h-140a15 15 0 0 0 0 30h140a15 15 0 0 0 0-30z"/><path d="m381 362h-140a15 15 0 0 0 0 30h140a15 15 0 0 0 0-30z"/></svg>