<svg id="Group_21667" data-name="Group 21667" xmlns="http://www.w3.org/2000/svg" width="16" height="16" viewBox="0 0 16 16">
  <path id="Path_14424" data-name="Path 14424" d="M59.171,178.085h-.727a.728.728,0,0,1-.727-.727v-6.545a.728.728,0,0,1,.727-.727h6.545a.728.728,0,0,1,.727.727v.727a.727.727,0,1,0,1.455,0v-.727a2.184,2.184,0,0,0-2.182-2.182H58.444a2.184,2.184,0,0,0-2.182,2.182v6.545a2.184,2.184,0,0,0,2.182,2.182h.727a.727.727,0,1,0,0-1.455Z" transform="translate(-56.262 -168.63)"/>
  <path id="Subtraction_12" data-name="Subtraction 12" d="M-3512.45-1631.234h0a1.152,1.152,0,0,1-1.094-1.152v-3.46a1.155,1.155,0,0,1,1.153-1.154h3.46a1.152,1.152,0,0,1,1.152,1.1h-1.918a2.755,2.755,0,0,0-2.752,2.751v1.917Z" transform="translate(3516.116 1639.571)" stroke="rgba(0,0,0,0)" stroke-width="1"/>
  <path id="Path_14423" data-name="Path 14423" d="M75.489,179.13H68.944a2.184,2.184,0,0,0-2.182,2.182v6.545a2.184,2.184,0,0,0,2.182,2.182h6.545a2.184,2.184,0,0,0,2.182-2.182v-6.545A2.184,2.184,0,0,0,75.489,179.13Zm.727,8.727a.728.728,0,0,1-.727.727H68.944a.728.728,0,0,1-.727-.727v-6.545a.728.728,0,0,1,.727-.727h6.545a.728.728,0,0,1,.727.727Z" transform="translate(-61.671 -174.039)"/>
  <path id="Path_14425" data-name="Path 14425" d="M71.376,179.13h-3.46a1.154,1.154,0,0,0-1.153,1.153v3.46a1.155,1.155,0,0,0,1.153,1.153h3.46a1.155,1.155,0,0,0,1.153-1.153v-3.46A1.155,1.155,0,0,0,71.376,179.13Z" transform="translate(-59.1 -171.468)"/>
</svg>
