<svg xmlns="http://www.w3.org/2000/svg" width="12" height="10.5" viewBox="0 0 12 10.5">
  <path id="Icon_awesome-sort-amount-down" data-name="Icon awesome-sort-amount-down" d="M7.125,11.25h-1.5a.375.375,0,0,0-.375.375v.75a.375.375,0,0,0,.375.375h1.5a.375.375,0,0,0,.375-.375v-.75A.375.375,0,0,0,7.125,11.25Zm-3-1.5H3V2.625a.375.375,0,0,0-.375-.375h-.75a.375.375,0,0,0-.375.375V9.75H.375a.375.375,0,0,0-.265.64l1.875,2.25a.375.375,0,0,0,.53,0l1.875-2.25A.376.376,0,0,0,4.125,9.75Zm6-4.5h-4.5a.375.375,0,0,0-.375.375v.75a.375.375,0,0,0,.375.375h4.5a.375.375,0,0,0,.375-.375v-.75A.375.375,0,0,0,10.125,5.25Zm-1.5,3h-3a.375.375,0,0,0-.375.375v.75a.375.375,0,0,0,.375.375h3A.375.375,0,0,0,9,9.375v-.75A.375.375,0,0,0,8.625,8.25Zm3-6h-6a.375.375,0,0,0-.375.375v.75a.375.375,0,0,0,.375.375h6A.375.375,0,0,0,12,3.375v-.75A.375.375,0,0,0,11.625,2.25Z" transform="translate(0 -2.25)"/>
</svg>
