<svg id="Icon_feather-info" data-name="Icon feather-info" xmlns="http://www.w3.org/2000/svg" width="16" height="16" viewBox="0 0 16 16">
  <path id="Path_14389" data-name="Path 14389" d="M260,203a8,8,0,1,1,8-8A8.009,8.009,0,0,1,260,203Zm0-14.545A6.545,6.545,0,1,0,266.545,195,6.553,6.553,0,0,0,260,188.455Z" transform="translate(-252 -187)"/>
  <path id="Path_14390" data-name="Path 14390" d="M267.727,206.364a.727.727,0,0,1-.727-.727v-2.909a.727.727,0,1,1,1.455,0v2.909A.727.727,0,0,1,267.727,206.364Z" transform="translate(-259.727 -194.727)"/>
  <path id="Path_14391" data-name="Path 14391" d="M267.727,197.465a.655.655,0,0,1-.141-.015.627.627,0,0,1-.136-.044.613.613,0,0,1-.126-.063.744.744,0,0,1-.2-.2,1.043,1.043,0,0,1-.068-.126,1.2,1.2,0,0,1-.038-.136.686.686,0,0,1,0-.281,1.2,1.2,0,0,1,.038-.136,1.043,1.043,0,0,1,.068-.126,1.081,1.081,0,0,1,.092-.112.751.751,0,0,1,1.028,0,1.082,1.082,0,0,1,.092.112.612.612,0,0,1,.063.126.634.634,0,0,1,.044.136.688.688,0,0,1,0,.281.634.634,0,0,1-.044.136.612.612,0,0,1-.063.126,1.082,1.082,0,0,1-.092.112A.727.727,0,0,1,267.727,197.465Z" transform="translate(-259.727 -191.647)"/>
</svg>
