<svg id="logo-playon" xmlns="http://www.w3.org/2000/svg" width="72.957" height="15.486" viewBox="0 0 72.957 15.486">
  <path id="Path_14143" data-name="Path 14143" d="M0,15.448V.41H6.619c2.735,0,3.9,2.248,3.9,5.011S9.425,10.393,6.6,10.393H3.791v5.055ZM5.552,3.413H3.791V7.407H5.552c.886,0,1.176-.76,1.176-1.986s-.29-2.029-1.176-2.029" transform="translate(0 -0.186)" fill="#fff"/>
  <path id="Path_14144" data-name="Path 14144" d="M21.35,15.448V.41h3.785V12.286h5.952v3.162Z" transform="translate(-9.671 -0.186)" fill="#fff"/>
  <path id="Path_14145" data-name="Path 14145" d="M50.87,15.448l-.738-2.735H46.154l-.76,2.735H41.51L45.722.41h4.808l4.376,15.038ZM46.838,9.677h2.6l-.952-4.163c-.109-.47-.29-1.641-.356-2.144h-.044c-.066.514-.224,1.674-.334,2.144Z" transform="translate(-18.803 -0.186)" fill="#fff"/>
  <path id="Path_14146" data-name="Path 14146" d="M66.544,15.448V9.742L61.84.41h4.168l1.849,4.053a16.063,16.063,0,0,1,.6,1.7h.033a14.919,14.919,0,0,1,.6-1.7L70.954.41h4.1l-4.7,9.36v5.678Z" transform="translate(-28.012 -0.186)" fill="#fff"/>
  <path id="Path_14147" data-name="Path 14147" d="M91.473,15.486c-4.633,0-6.373-2.429-6.373-7.73S86.84,0,91.473,0,97.8,2.451,97.8,7.757s-1.718,7.73-6.329,7.73m0-3.233c1.641,0,2.385-.8,2.385-4.5s-.739-4.524-2.385-4.524-2.385.842-2.385,4.524.711,4.5,2.385,4.5" transform="translate(-38.548 0)" fill="#00c853"/>
  <path id="Path_14148" data-name="Path 14148" d="M119.146,8.342a20.959,20.959,0,0,1,.821,2.429h.044c-.066-.914-.109-1.805-.109-2.631V.41h3.386V15.448h-4.579l-3.452-7.817a17.2,17.2,0,0,1-.782-2.385h-.044c.088.864.137,1.915.137,2.735v7.461H111.11V.41h4.677Z" transform="translate(-50.33 -0.186)" fill="#00c853"/>
</svg>
