<svg xmlns="http://www.w3.org/2000/svg" width="16" height="15.307" viewBox="0 0 16 15.307">
  <path id="Path_14136" data-name="Path 14136" d="M289.573,284.3a.892.892,0,0,1-.414-.1l-3.982-2.1-3.982,2.093a.888.888,0,0,1-1.289-.937l.761-4.433-3.221-3.139a.89.89,0,0,1,.493-1.516l4.452-.649,1.989-4.033a.887.887,0,0,1,.8-.5h0a.887.887,0,0,1,.8.5l1.992,4.034,4.453.651a.889.889,0,0,1,.492,1.515l-3.221,3.139.761,4.434a.888.888,0,0,1-.876,1.039Zm-4.4-4.091a.887.887,0,0,1,.414.1l2.8,1.474-.535-3.119a.89.89,0,0,1,.255-.786l2.267-2.21-3.135-.459a.89.89,0,0,1-.668-.485l-1.4-2.838-1.4,2.837a.892.892,0,0,1-.669.487l-3.134.456,2.266,2.21a.888.888,0,0,1,.255.787l-.535,3.118,2.8-1.473A.886.886,0,0,1,285.177,280.207Zm-2.2-5.875h0Z" transform="translate(-277.178 -268.99)"/>
</svg>
