<svg id="s1" xmlns="http://www.w3.org/2000/svg" width="301.714" height="174.726" viewBox="0 0 301.714 174.726">
  <path id="Path_14411" data-name="Path 14411" d="M298.933,55c-5.88-7.448-20.086-25.15-25.057-28.593-8.766-6.094-18.938-2.291-20.07-1.839l-.291.125c-.756.344-75.849,34.4-82.53,37.4-7.509,3.366-13.373,7.117-19.4,15.394-4.918,6.757-6.49,13.054-7.638,17.649a24.227,24.227,0,0,1-1.212,4.066c-.978,1.815-4.3,4.7-7.085,4.9a9.99,9.99,0,0,1-6.212-1.487,1.76,1.76,0,0,0-.154-.117c-8-6.062-23.44-17.827-24.653-18.764l-.061-.048a8.092,8.092,0,0,1-3.5-5.589c-.533-3.132.2-5.6,2.538-8.527a10.213,10.213,0,0,1,4.805-2.772,1.785,1.785,0,0,0,.2-.049c.206-.048,20.789-5.181,26.386-6.466a71.244,71.244,0,0,0,12.472-3.823c9.465-3.876,18.32-12.124,23.687-22.07,4.086-7.513,5.852-17.952,5.808-20.648a14.189,14.189,0,0,0-2.089-7.561,13.175,13.175,0,0,0-5.989-5.1,11.781,11.781,0,0,0-9.3-.238c-2.522.946-26.116,9.784-37,13.741-8.038,2.922-17.127,4.85-23.767,6.26-2.174.461-4.041.861-5.658,1.245C87.127,23.513,81.788,24.7,67.784,27.6c-16,3.314-24.3,5.82-36.991,11.17A165.834,165.834,0,0,0,4.12,53.238C.047,56.547-.285,60.3.148,62.868c.865,5.145,5.872,7.5,8.253,8.333,2.95,1.212,6.583,2.615,10.423,4.106,11.449,4.446,25.7,9.962,35.318,15.276,10.944,6.062,20.3,15.115,27.821,22.4,1.976,1.916,3.843,3.722,5.549,5.282,4.211,3.855,19.144,17.18,34.413,26.673,10.778,6.7,25.909,15.685,33.184,20l2.9,1.726a27.478,27.478,0,0,1,4.636,3.637c2.021,1.851,4.336,3.952,7.719,4.357a8.292,8.292,0,0,0,1.043.065,12.741,12.741,0,0,0,7.7-3.116l100.93-79.579.049-.04A78.824,78.824,0,0,0,299.4,69.868a15.288,15.288,0,0,0,2.316-7.275A12.747,12.747,0,0,0,298.933,55Zm-4.821,11.914a73.09,73.09,0,0,1-17.819,20.352L228.232,125.15h0L175.29,166.878c-.36.3-2.223,1.766-3.9,1.766a2.751,2.751,0,0,1-.315,0c-1.451-.174-2.732-1.342-4.353-2.829a33.466,33.466,0,0,0-5.622-4.357l-2.906-1.73c-7.275-4.308-22.353-13.272-33.083-19.94-14.824-9.21-29.4-22.228-33.515-25.986-1.641-1.5-3.48-3.282-5.428-5.169-7.355-7.141-17.459-16.893-29.094-23.359-9.97-5.5-24.434-11.114-36.053-15.62l-1.847-.715h0l-.942-.364-.4-.166-.069-.024-.942-.368h0c-2.158-.841-4.34-1.7-6.256-2.49-.748-.255-4.041-1.491-4.417-3.666a3.977,3.977,0,0,1,1.807-3.92,166.027,166.027,0,0,1,25.19-13.583c12.233-5.161,20.3-7.582,35.847-10.815,14.076-2.91,19.455-4.11,25.554-5.549,1.556-.368,3.4-.76,5.541-1.212,6.81-1.443,16.141-3.423,24.58-6.495C135.939,16.166,160.8,6.871,161.9,6.466a5.626,5.626,0,0,1,4.53.17A7.23,7.23,0,0,1,169.7,9.344a8.127,8.127,0,0,1,1.212,4.446c0,1.693-1.52,11.187-5.048,17.726-4.72,8.754-12.439,15.98-20.648,19.342a64.363,64.363,0,0,1-11.534,3.524c-5.658,1.3-26.269,6.442-26.5,6.495-.085,0-5.3,1.184-8.277,4.914-3.4,4.264-4.6,8.487-3.779,13.337a14.066,14.066,0,0,0,5.751,9.352l.061.049c1.156.9,14.549,11.1,21.116,16.089h0l3.577,2.72.121.1a16.048,16.048,0,0,0,10.354,2.728c4.906-.356,10.039-4.466,11.979-8.083a25.369,25.369,0,0,0,1.766-5.476c1.083-4.34,2.425-9.744,6.66-15.551,4.692-6.466,8.976-9.841,16.974-13.426,6.7-3,81.8-37.072,82.558-37.415h.04c.327-.133,8.083-3.168,14.355,1.188,4.68,3.249,22.959,26.394,23.723,27.356a6.85,6.85,0,0,1,1.487,3.759A9.86,9.86,0,0,1,294.111,66.914Z" transform="translate(-0.004 0)" fill="#2c343c"/>
  <path id="Path_14412" data-name="Path 14412" d="M278.459,44.51c-5.175-3.568-11.913-1.106-12.3-.959-1.724.793-75.089,33.769-81.675,36.7-7.546,3.354-11.6,6.518-16,12.529-3.951,5.384-5.235,10.479-6.266,14.571A25.155,25.155,0,0,1,160.3,113.2c-2.219,4.08-7.862,8.544-13.469,8.949a18.069,18.069,0,0,1-10.9-2.6l-.024.032-.56-.424c-.128-.091-.208-.155-.248-.186-1.04-.793-22.922-17.283-24.442-18.461l-.06-.044a15.817,15.817,0,0,1-6.43-10.408c-.916-5.341.4-10,4.147-14.65,3.4-4.223,9.062-5.464,9.3-5.515.176-.044,20.615-5.095,26.225-6.372a62.567,62.567,0,0,0,11.1-3.362c7.706-3.128,14.968-9.888,19.427-18.08a49.061,49.061,0,0,0,4.755-16.435,5.956,5.956,0,0,0-.9-3.354,5.215,5.215,0,0,0-2.347-1.864,3.543,3.543,0,0,0-2.839-.174l-.1.04c-.256.1-25.537,9.488-36.9,13.588-8.462,3.041-17.791,5-24.594,6.431-2.1.44-3.919.825-5.435,1.189-6.05,1.419-11.389,2.6-25.338,5.46-15.24,3.124-23.118,5.479-35.115,10.5A164.76,164.76,0,0,0,21.113,70.488c-.728.587-1.232,1.075-1.076,1.982.12.714,1.86,1.653,3.067,2.058l.064.024c2.3.936,5.015,1.982,7.6,2.986l.216.083,2.539.975c11.557,4.441,25.937,9.972,35.923,15.443,11.761,6.447,21.854,16.137,29.225,23.215,1.916,1.84,3.727,3.568,5.327,5.031,4.039,3.668,18.351,16.327,32.872,25.276,10.6,6.526,25.525,15.316,32.7,19.539l2.879,1.7a35.177,35.177,0,0,1,5.886,4.516c1.34,1.209,2.4,2.165,3.2,2.26a5.2,5.2,0,0,0,2.679-1.289l50.579-39.53h0L284.15,96.149a70.267,70.267,0,0,0,17.124-19.365,8.128,8.128,0,0,0,1.288-3.394,4.9,4.9,0,0,0-1.04-2.431C301.333,70.73,282.862,47.543,278.459,44.51Zm17.6,29.38a63.714,63.714,0,0,1-15.624,17.616l-98.515,76.983a39.016,39.016,0,0,0-6.4-4.817l-2.887-1.7c-7.158-4.211-22.05-12.981-32.6-19.476-14.084-8.679-28.045-21.034-31.992-24.61-1.54-1.4-3.319-3.108-5.2-4.916-7.6-7.311-18.035-17.319-30.5-24.15-10.341-5.666-24.934-11.276-36.659-15.78L31.2,71.3A154.382,154.382,0,0,1,47.91,62.919c11.717-4.9,19.027-7.085,33.991-10.154,14.02-2.879,19.4-4.064,25.5-5.5,1.448-.341,3.235-.714,5.3-1.15,6.97-1.467,16.52-3.477,25.4-6.677,9.486-3.422,28.613-10.511,34.9-12.846-.4,2.569-1.656,8.5-3.907,12.644-1.432,2.629-6.846,11.5-16.42,15.4a56.683,56.683,0,0,1-10.173,3.069c-5.519,1.257-24.7,5.995-26.289,6.387-1.316.3-8.146,2.082-12.581,7.585-4.823,5.995-6.582,12.327-5.371,19.365a21.636,21.636,0,0,0,8.654,14.1l.056.044c1.536,1.189,23.03,17.394,24.47,18.48a23.79,23.79,0,0,0,15.832,4.4c8.034-.583,15.292-6.506,18.315-12.057a30.639,30.639,0,0,0,2.467-7.216c.952-3.783,2.028-8.065,5.295-12.513,3.8-5.186,6.978-7.66,13.6-10.606,6.446-2.863,76.656-34.439,81.467-36.6.664-.214,4.3-1.281,6.606.309,2.443,1.8,12.673,13.849,21.095,24.384Zm.732.706h0l.068.083Z" transform="translate(-10.425 -10.438)" fill="#2c343c"/>
</svg>
